<?xml version="1.0" encoding="UTF-8"?>
<svg version="1.1" xmlns="http://www.w3.org/2000/svg" width="500" height="500">
<path d="M0 0 C3.20928418 2.45969785 6.28153892 5.05862179 9.2890625 7.75976562 C12.57691091 6.26666015 15.19641034 4.35062181 18.0390625 2.13476562 C38.08768792 -12.52845775 60.42148904 -17.27057227 85.02685547 -13.86083984 C106.35105709 -9.82971243 125.0345982 3.20324759 137.44921875 20.82617188 C147.11025172 35.83237449 154.82826967 56.54928995 152.2890625 74.75976562 C150.2003116 81.61801725 145.89101784 85.92309127 140.1015625 90.00976562 C134.07971074 93.20317186 127.6971708 93.37548058 121.1640625 91.75976562 C115.00859607 89.64655038 110.57531681 85.78029139 106.68359375 80.63867188 C104.71855442 76.58199404 104.15607234 72.49328847 103.4140625 68.07226562 C102.04780924 60.66155858 100.54272387 54.1141616 96.2890625 47.75976562 C95.91007812 47.18355469 95.53109375 46.60734375 95.140625 46.01367188 C89.83995199 38.88088705 81.65488373 35.34432638 73.1015625 34.00976562 C63.92159692 33.17662589 55.81507089 35.5236178 48.2890625 40.75976562 C41.67049708 46.30089016 37.22583958 53.38187211 35.2890625 61.75976562 C35.07870758 64.27603645 34.93559926 66.79861631 34.8515625 69.32226562 C34.25279443 81.57705219 31.59457342 92.66505047 26.2890625 103.75976562 C25.84691406 104.6853125 25.40476562 105.61085938 24.94921875 106.56445312 C15.04296825 125.93789593 -2.74125977 140.08201394 -23.33203125 146.79492188 C-44.92631582 152.96115111 -68.83338797 150.92698708 -88.65234375 140.16210938 C-94.93040261 136.32891349 -100.38696703 131.82082397 -105.7109375 126.75976562 C-108.9952497 128.65698611 -111.96193686 130.67568442 -114.8984375 133.07226562 C-133.82243476 147.85663849 -156.04450988 152.12132454 -179.58203125 149.29492188 C-200.68262586 145.24724822 -220.20852919 134.12357143 -232.5859375 116.32226562 C-243.27066193 99.93773341 -250.43678284 80.62017912 -247.7109375 60.75976562 C-245.59773591 54.96618945 -242.104111 49.89533161 -236.7109375 46.75976562 C-229.03972943 43.38148361 -222.44476927 42.56465081 -214.5234375 45.44726562 C-207.93650628 48.32211309 -204.40933311 52.68382999 -200.7109375 58.75976562 C-199.75468465 61.62852418 -199.44303993 64.21131132 -199.16625977 67.20629883 C-198.37726078 75.33739779 -197.1454798 83.38782863 -191.05078125 89.39648438 C-189.7109375 90.75976562 -189.7109375 90.75976562 -189.7109375 92.75976562 C-189.1540625 93.03691406 -188.5971875 93.3140625 -188.0234375 93.59960938 C-186.43593577 94.39604183 -184.8527971 95.20121285 -183.2734375 96.01367188 C-182.4278125 96.44550781 -181.5821875 96.87734375 -180.7109375 97.32226562 C-179.8653125 97.75667969 -179.0196875 98.19109375 -178.1484375 98.63867188 C-170.8246811 102.00713035 -161.56155938 101.90433134 -153.8984375 99.63476562 C-145.73421593 96.43486926 -138.49895728 90.25326512 -134.5234375 82.41992188 C-131.91332636 75.73151209 -131.3292507 69.21959586 -130.8359375 62.13476562 C-129.14098553 38.85386945 -119.24864437 20.35039061 -102.3125 4.51757812 C-73.9898293 -19.66490151 -30.30037185 -21.96431065 0 0 Z M-73.04296875 42.92773438 C-79.72527288 50.26731432 -83.29810219 59.03716744 -83.01171875 68.95507812 C-81.84487951 79.83547522 -77.8994665 87.52903821 -69.7109375 94.75976562 C-60.81683089 101.60386944 -51.78197416 102.85579825 -40.7109375 101.75976562 C-29.41356044 98.56647549 -22.66729029 92.71643436 -16.7109375 82.75976562 C-11.99706365 73.01775966 -13.07450502 63.8402675 -16.45703125 53.81054688 C-20.38968477 44.24231511 -27.26485263 39.58005958 -36.2109375 34.94726562 C-49.32123705 30.49912828 -62.81795938 33.68544902 -73.04296875 42.92773438 Z " fill="#0966C2" transform="translate(297.7109375,182.240234375)"/>
<path d="M0 0 C3.90515315 2.34439796 6.08823339 5.51208663 8.3359375 9.40234375 C9.0165625 10.57796875 9.0165625 10.57796875 9.7109375 11.77734375 C11.48250571 19.21793024 10.73272917 25.41727171 7.03125 32.1328125 C3.43438677 36.94796811 -1.73637066 40.30199377 -7.6640625 41.40234375 C-14.92899104 41.88667232 -20.07495866 40.48903203 -26.3515625 36.83984375 C-30.97472108 31.96678471 -33.91551706 26.1688525 -34.2890625 19.40234375 C-33.91551706 12.635835 -30.97472108 6.83790279 -26.3515625 1.96484375 C-17.42761147 -3.22349987 -9.58662304 -4.14437088 0 0 Z " fill="#100F0F" transform="translate(378.6640625,230.59765625)"/>
<path d="M0 0 C3.90515315 2.34439796 6.08823339 5.51208663 8.3359375 9.40234375 C9.0165625 10.57796875 9.0165625 10.57796875 9.7109375 11.77734375 C11.48250571 19.21793024 10.73272917 25.41727171 7.03125 32.1328125 C3.43438677 36.94796811 -1.73637066 40.30199377 -7.6640625 41.40234375 C-14.92899104 41.88667232 -20.07495866 40.48903203 -26.3515625 36.83984375 C-30.97472108 31.96678471 -33.91551706 26.1688525 -34.2890625 19.40234375 C-33.91551706 12.635835 -30.97472108 6.83790279 -26.3515625 1.96484375 C-17.42761147 -3.22349987 -9.58662304 -4.14437088 0 0 Z " fill="#100F0F" transform="translate(144.6640625,230.59765625)"/>
<path d="M0 0 C5.08070635 4.19710524 7.80058423 8.75778555 8.875 15.25 C9.41340957 21.89038473 7.81861435 27.80833656 3.5625 32.9375 C2.716875 33.618125 1.87125 34.29875 1 35 C0.360625 35.556875 -0.27875 36.11375 -0.9375 36.6875 C-5.90938683 39.85142798 -11.19072666 40.81083497 -17 40 C-24.05198292 38.17696417 -29.13475753 35.28101901 -33 29 C-35.90041274 22.95914036 -36.17014124 16.05560315 -34.3125 9.6171875 C-31.56241588 3.5899198 -27.21749956 -0.23214725 -21.125 -2.8125 C-13.20015655 -5.42905173 -7.05899403 -4.143616 0 0 Z " fill="#100F0F" transform="translate(263,232)"/>
</svg>
